<svg width="268" height="24" viewBox="0 0 268 24" fill="none" xmlns="http://www.w3.org/2000/svg">
<path fill-rule="evenodd" clip-rule="evenodd" d="M93.5936 2C91.1983 2 89.1627 3.46859 88.3818 5.53141L84.2053 16.618H72.641C72.3339 16.618 72.0883 16.3803 72.0883 16.0832V2.00849H66.543V16.618C66.543 19.5806 69.0261 21.983 72.0883 21.983L88.0747 22L90.1103 16.618H97.077L98.437 20.2173C98.8493 21.3039 99.9022 21.9915 101.034 21.9915H105L98.8318 5.59932C98.0772 3.50255 96.0241 2 93.5936 2ZM93.348 7.36503L95.3221 12.5942H91.3826L93.348 7.36503Z" fill="#0D34BE"/>
<path d="M59.3396 14.6655V2H64.8936V16.618C64.8936 19.5806 62.4106 21.983 59.3484 21.983C57.2953 21.983 55.5053 20.9049 54.5402 19.3005L48.4773 9.14771C48.4685 9.13923 48.4597 9.12229 48.4422 9.08844C48.3457 8.93564 48.1702 8.83362 47.9684 8.83362C47.6613 8.83362 47.4156 9.07131 47.4156 9.36842V21.9915H26.7525C23.6904 21.9915 21.2073 19.5891 21.2073 16.6265V7.97623H23.3043C24.4976 7.97623 25.5154 7.24618 25.9102 6.21902L27.5334 2.01698L40.1155 2.01698V7.382H27.3053C26.9982 7.382 26.7525 7.61969 26.7525 7.94228V9.9966H40.1155V14.0204H26.7525V16.1002C26.7525 16.3973 26.9982 16.635 27.3053 16.635H41.8703V7.382C41.8703 4.41935 44.3534 2.01698 47.4156 2.01698C49.4512 2.01698 51.2323 3.08659 52.1975 4.67402L58.3657 15.0136C58.4622 15.1239 58.6201 15.2003 58.7869 15.2003C59.0939 15.2003 59.3396 14.9626 59.3396 14.6655Z" fill="#0D34BE"/>
<path d="M5.54525 2.01679C2.48308 2.01679 0 4.41917 0 7.38182C0 9.59744 1.38631 11.499 3.36926 12.3139L11.4239 15.6246C11.5994 15.718 11.7135 15.8962 11.7135 16.0915C11.7135 16.3716 11.4853 16.6008 11.2046 16.6263H0V21.9913H14.1351V21.9828C17.0832 21.864 19.4435 19.5125 19.4435 16.6263C19.4435 14.2833 17.8904 12.2969 15.732 11.5669L8.06342 8.41747C7.85284 8.34107 7.70368 8.14582 7.70368 7.91662C7.70368 7.63649 7.93181 7.40728 8.21258 7.38182H22.8654C24.0586 7.38182 25.0764 6.65177 25.4713 5.6246L26.8313 2.01679H5.54525Z" fill="#0D34BE"/>
<path d="M113 2L117 12L113 22" stroke="#18B2FF" stroke-width="2" stroke-linecap="round" stroke-linejoin="bevel"/>
<path opacity="0.8" d="M128.02 9.12C127.507 9.12 127.057 9.03 126.67 8.85C126.283 8.67 125.98 8.41333 125.76 8.08C125.547 7.74667 125.437 7.35 125.43 6.89H126.55C126.557 7.26333 126.687 7.58 126.94 7.84C127.193 8.1 127.55 8.23 128.01 8.23C128.417 8.23 128.733 8.13333 128.96 7.94C129.193 7.74 129.31 7.48667 129.31 7.18C129.31 6.93333 129.253 6.73333 129.14 6.58C129.033 6.42667 128.883 6.3 128.69 6.2C128.503 6.1 128.287 6.01 128.04 5.93C127.793 5.85 127.533 5.76333 127.26 5.67C126.72 5.49 126.313 5.25667 126.04 4.97C125.773 4.68333 125.64 4.30667 125.64 3.84C125.633 3.44667 125.723 3.10333 125.91 2.81C126.103 2.51667 126.37 2.29 126.71 2.13C127.057 1.96333 127.46 1.88 127.92 1.88C128.373 1.88 128.77 1.96333 129.11 2.13C129.457 2.29667 129.727 2.53 129.92 2.83C130.113 3.12333 130.213 3.46667 130.22 3.86H129.1C129.1 3.68 129.053 3.51 128.96 3.35C128.867 3.18333 128.73 3.04667 128.55 2.94C128.37 2.83333 128.15 2.78 127.89 2.78C127.557 2.77333 127.28 2.85667 127.06 3.03C126.847 3.20333 126.74 3.44333 126.74 3.75C126.74 4.02333 126.82 4.23333 126.98 4.38C127.14 4.52667 127.36 4.65 127.64 4.75C127.92 4.84333 128.24 4.95333 128.6 5.08C128.947 5.19333 129.257 5.33 129.53 5.49C129.803 5.65 130.02 5.86 130.18 6.12C130.347 6.38 130.43 6.71 130.43 7.11C130.43 7.46333 130.34 7.79333 130.16 8.1C129.98 8.4 129.71 8.64667 129.35 8.84C128.99 9.02667 128.547 9.12 128.02 9.12ZM135.819 9.12C135.126 9.12 134.519 8.96667 133.999 8.66C133.479 8.35333 133.072 7.93 132.779 7.39C132.486 6.84333 132.339 6.21333 132.339 5.5C132.339 4.78667 132.486 4.16 132.779 3.62C133.072 3.07333 133.479 2.64667 133.999 2.34C134.519 2.03333 135.126 1.88 135.819 1.88C136.512 1.88 137.119 2.03333 137.639 2.34C138.159 2.64667 138.562 3.07333 138.849 3.62C139.142 4.16 139.289 4.78667 139.289 5.5C139.289 6.21333 139.142 6.84333 138.849 7.39C138.562 7.93 138.159 8.35333 137.639 8.66C137.119 8.96667 136.512 9.12 135.819 9.12ZM135.819 8.17C136.299 8.17 136.716 8.06333 137.069 7.85C137.429 7.63667 137.709 7.33 137.909 6.93C138.109 6.53 138.209 6.05333 138.209 5.5C138.209 4.94667 138.109 4.47 137.909 4.07C137.709 3.67 137.429 3.36333 137.069 3.15C136.716 2.93667 136.299 2.83 135.819 2.83C135.339 2.83 134.919 2.93667 134.559 3.15C134.199 3.36333 133.919 3.67 133.719 4.07C133.526 4.47 133.429 4.94667 133.429 5.5C133.429 6.05333 133.526 6.53 133.719 6.93C133.919 7.33 134.199 7.63667 134.559 7.85C134.919 8.06333 135.339 8.17 135.819 8.17ZM141.47 9V2H145.86V2.86H142.53V5.07H145.29V5.92H142.53V9H141.47ZM149.539 9V2.86H147.469V2H152.659V2.86H150.599V9H149.539ZM156.081 9.01L154.191 2H155.331L156.721 7.8L158.321 2H159.491L161.041 7.8L162.431 2H163.571L161.651 9H160.411L158.881 3.51L157.301 9L156.081 9.01ZM164.391 9L166.971 2H168.131L170.691 9H169.571L168.971 7.29H166.111L165.511 9H164.391ZM166.411 6.45H168.671L167.541 3.26L166.411 6.45ZM172.667 9V2H175.077C175.63 2 176.084 2.09333 176.437 2.28C176.797 2.46667 177.064 2.72 177.237 3.04C177.41 3.35333 177.497 3.70333 177.497 4.09C177.497 4.52333 177.38 4.91667 177.147 5.27C176.92 5.62333 176.564 5.87667 176.077 6.03L177.567 9H176.337L174.977 6.18H173.727V9H172.667ZM173.727 5.38H175.017C175.497 5.38 175.847 5.26333 176.067 5.03C176.294 4.79667 176.407 4.49333 176.407 4.12C176.407 3.74667 176.297 3.45 176.077 3.23C175.857 3.00333 175.5 2.89 175.007 2.89H173.727V5.38ZM179.751 9V2H184.201V2.86H180.811V5.04H183.901V5.88H180.811V8.14H184.201V9H179.751ZM189.983 9V2H194.433V2.86H191.043V5.04H194.133V5.88H191.043V8.14H194.433V9H189.983ZM196.696 9V2H197.756L201.266 7.27V2H202.326V9H201.266L197.756 3.73V9H196.696ZM207.787 9.12C207.127 9.12 206.55 8.97 206.057 8.67C205.564 8.37 205.18 7.95 204.907 7.41C204.634 6.87 204.497 6.24 204.497 5.52C204.497 4.80667 204.637 4.17667 204.917 3.63C205.197 3.08333 205.594 2.65667 206.107 2.35C206.627 2.03667 207.24 1.88 207.947 1.88C208.747 1.88 209.414 2.07333 209.947 2.46C210.48 2.84667 210.827 3.38 210.987 4.06H209.787C209.68 3.68667 209.47 3.39333 209.157 3.18C208.844 2.96667 208.44 2.86 207.947 2.86C207.214 2.86 206.637 3.09667 206.217 3.57C205.797 4.04333 205.587 4.69667 205.587 5.53C205.587 6.36333 205.794 7.01333 206.207 7.48C206.62 7.94667 207.17 8.18 207.857 8.18C208.55 8.18 209.07 7.98333 209.417 7.59C209.77 7.19667 209.977 6.67333 210.037 6.02H208.137V5.2H211.107V9H210.137L210.047 7.97C209.814 8.33667 209.52 8.62 209.167 8.82C208.814 9.02 208.354 9.12 207.787 9.12ZM213.394 9V2H214.454V9H213.394ZM216.874 9V2H217.934L221.444 7.27V2H222.504V9H221.444L217.934 3.73V9H216.874ZM224.925 9V2H229.375V2.86H225.985V5.04H229.075V5.88H225.985V8.14H229.375V9H224.925ZM231.638 9V2H236.088V2.86H232.698V5.04H235.788V5.88H232.698V8.14H236.088V9H231.638ZM238.351 9V2H240.761C241.314 2 241.767 2.09333 242.121 2.28C242.481 2.46667 242.747 2.72 242.921 3.04C243.094 3.35333 243.181 3.70333 243.181 4.09C243.181 4.52333 243.064 4.91667 242.831 5.27C242.604 5.62333 242.247 5.87667 241.761 6.03L243.251 9H242.021L240.661 6.18H239.411V9H238.351ZM239.411 5.38H240.701C241.181 5.38 241.531 5.26333 241.751 5.03C241.977 4.79667 242.091 4.49333 242.091 4.12C242.091 3.74667 241.981 3.45 241.761 3.23C241.541 3.00333 241.184 2.89 240.691 2.89H239.411V5.38ZM245.435 9V2H246.495V9H245.435ZM248.915 9V2H249.975L253.485 7.27V2H254.545V9H253.485L249.975 3.73V9H248.915ZM260.006 9.12C259.346 9.12 258.769 8.97 258.276 8.67C257.783 8.37 257.399 7.95 257.126 7.41C256.853 6.87 256.716 6.24 256.716 5.52C256.716 4.80667 256.856 4.17667 257.136 3.63C257.416 3.08333 257.813 2.65667 258.326 2.35C258.846 2.03667 259.459 1.88 260.166 1.88C260.966 1.88 261.633 2.07333 262.166 2.46C262.699 2.84667 263.046 3.38 263.206 4.06H262.006C261.899 3.68667 261.689 3.39333 261.376 3.18C261.063 2.96667 260.659 2.86 260.166 2.86C259.433 2.86 258.856 3.09667 258.436 3.57C258.016 4.04333 257.806 4.69667 257.806 5.53C257.806 6.36333 258.013 7.01333 258.426 7.48C258.839 7.94667 259.389 8.18 260.076 8.18C260.769 8.18 261.289 7.98333 261.636 7.59C261.989 7.19667 262.196 6.67333 262.256 6.02H260.356V5.2H263.326V9H262.356L262.266 7.97C262.033 8.33667 261.739 8.62 261.386 8.82C261.033 9.02 260.573 9.12 260.006 9.12ZM125.71 22V15H126.77V21.16H129.95V22H125.71ZM131.641 22L134.221 15H135.381L137.941 22H136.821L136.221 20.29H133.361L132.761 22H131.641ZM133.661 19.45H135.921L134.791 16.26L133.661 19.45ZM139.917 22V15H142.557C143.284 15 143.834 15.17 144.207 15.51C144.58 15.85 144.767 16.2767 144.767 16.79C144.767 17.2367 144.647 17.5933 144.407 17.86C144.167 18.12 143.877 18.2967 143.537 18.39C143.804 18.4433 144.04 18.55 144.247 18.71C144.46 18.87 144.627 19.07 144.747 19.31C144.867 19.55 144.927 19.81 144.927 20.09C144.927 20.45 144.837 20.7767 144.657 21.07C144.484 21.3567 144.227 21.5833 143.887 21.75C143.547 21.9167 143.13 22 142.637 22H139.917ZM140.977 18H142.427C142.834 18 143.144 17.9067 143.357 17.72C143.57 17.5267 143.677 17.2633 143.677 16.93C143.677 16.6033 143.57 16.3433 143.357 16.15C143.15 15.9567 142.834 15.86 142.407 15.86H140.977V18ZM140.977 21.13H142.497C142.924 21.13 143.254 21.03 143.487 20.83C143.727 20.63 143.847 20.35 143.847 19.99C143.847 19.63 143.724 19.3467 143.477 19.14C143.23 18.9267 142.897 18.82 142.477 18.82H140.977V21.13ZM150.319 22.12C149.626 22.12 149.019 21.9667 148.499 21.66C147.979 21.3533 147.572 20.93 147.279 20.39C146.986 19.8433 146.839 19.2133 146.839 18.5C146.839 17.7867 146.986 17.16 147.279 16.62C147.572 16.0733 147.979 15.6467 148.499 15.34C149.019 15.0333 149.626 14.88 150.319 14.88C151.012 14.88 151.619 15.0333 152.139 15.34C152.659 15.6467 153.062 16.0733 153.349 16.62C153.642 17.16 153.789 17.7867 153.789 18.5C153.789 19.2133 153.642 19.8433 153.349 20.39C153.062 20.93 152.659 21.3533 152.139 21.66C151.619 21.9667 151.012 22.12 150.319 22.12ZM150.319 21.17C150.799 21.17 151.216 21.0633 151.569 20.85C151.929 20.6367 152.209 20.33 152.409 19.93C152.609 19.53 152.709 19.0533 152.709 18.5C152.709 17.9467 152.609 17.47 152.409 17.07C152.209 16.67 151.929 16.3633 151.569 16.15C151.216 15.9367 150.799 15.83 150.319 15.83C149.839 15.83 149.419 15.9367 149.059 16.15C148.699 16.3633 148.419 16.67 148.219 17.07C148.026 17.47 147.929 17.9467 147.929 18.5C147.929 19.0533 148.026 19.53 148.219 19.93C148.419 20.33 148.699 20.6367 149.059 20.85C149.419 21.0633 149.839 21.17 150.319 21.17ZM155.97 22V15H158.38C158.933 15 159.386 15.0933 159.74 15.28C160.1 15.4667 160.366 15.72 160.54 16.04C160.713 16.3533 160.8 16.7033 160.8 17.09C160.8 17.5233 160.683 17.9167 160.45 18.27C160.223 18.6233 159.866 18.8767 159.38 19.03L160.87 22H159.64L158.28 19.18H157.03V22H155.97ZM157.03 18.38H158.32C158.8 18.38 159.15 18.2633 159.37 18.03C159.596 17.7967 159.71 17.4933 159.71 17.12C159.71 16.7467 159.6 16.45 159.38 16.23C159.16 16.0033 158.803 15.89 158.31 15.89H157.03V18.38ZM162.604 22L165.184 15H166.344L168.904 22H167.784L167.184 20.29H164.324L163.724 22H162.604ZM164.624 19.45H166.884L165.754 16.26L164.624 19.45ZM171.758 22V15.86H169.688V15H174.878V15.86H172.818V22H171.758ZM179.788 22.12C179.094 22.12 178.488 21.9667 177.968 21.66C177.448 21.3533 177.041 20.93 176.748 20.39C176.454 19.8433 176.308 19.2133 176.308 18.5C176.308 17.7867 176.454 17.16 176.748 16.62C177.041 16.0733 177.448 15.6467 177.968 15.34C178.488 15.0333 179.094 14.88 179.788 14.88C180.481 14.88 181.088 15.0333 181.608 15.34C182.128 15.6467 182.531 16.0733 182.818 16.62C183.111 17.16 183.258 17.7867 183.258 18.5C183.258 19.2133 183.111 19.8433 182.818 20.39C182.531 20.93 182.128 21.3533 181.608 21.66C181.088 21.9667 180.481 22.12 179.788 22.12ZM179.788 21.17C180.268 21.17 180.684 21.0633 181.038 20.85C181.398 20.6367 181.678 20.33 181.878 19.93C182.078 19.53 182.178 19.0533 182.178 18.5C182.178 17.9467 182.078 17.47 181.878 17.07C181.678 16.67 181.398 16.3633 181.038 16.15C180.684 15.9367 180.268 15.83 179.788 15.83C179.308 15.83 178.888 15.9367 178.528 16.15C178.168 16.3633 177.888 16.67 177.688 17.07C177.494 17.47 177.398 17.9467 177.398 18.5C177.398 19.0533 177.494 19.53 177.688 19.93C177.888 20.33 178.168 20.6367 178.528 20.85C178.888 21.0633 179.308 21.17 179.788 21.17ZM185.439 22V15H187.849C188.402 15 188.855 15.0933 189.209 15.28C189.569 15.4667 189.835 15.72 190.009 16.04C190.182 16.3533 190.269 16.7033 190.269 17.09C190.269 17.5233 190.152 17.9167 189.919 18.27C189.692 18.6233 189.335 18.8767 188.849 19.03L190.339 22H189.109L187.749 19.18H186.499V22H185.439ZM186.499 18.38H187.789C188.269 18.38 188.619 18.2633 188.839 18.03C189.065 17.7967 189.179 17.4933 189.179 17.12C189.179 16.7467 189.069 16.45 188.849 16.23C188.629 16.0033 188.272 15.89 187.779 15.89H186.499V18.38ZM194.039 22V19.42L191.719 15H192.919L194.569 18.38L196.209 15H197.399L195.099 19.42V22H194.039Z" fill="#0D34BE"/>
</svg> 