<svg width="332" height="28" viewBox="0 0 332 28" fill="none" xmlns="http://www.w3.org/2000/svg"><path fill-rule="evenodd" clip-rule="evenodd" d="M118.224 1.47281C115.198 1.47281 112.627 3.31241 111.64 5.89636L106.365 19.7838H91.7571C91.3692 19.7838 91.0589 19.486 91.0589 19.1139V1.48344H84.0543V19.7838C84.0543 23.4949 87.1909 26.5042 91.0589 26.5042L111.252 26.5254L113.824 19.7838H122.624L124.341 24.2924C124.862 25.6535 126.192 26.5148 127.622 26.5148H132.632L124.84 5.98143C123.887 3.35495 121.294 1.47281 118.224 1.47281ZM117.913 8.19321L120.407 14.7435H115.431L117.913 8.19321Z" fill="white"></path><path d="M74.9553 17.3381V1.47281H81.9709V19.7838C81.9709 23.4949 78.8344 26.5042 74.9664 26.5042C72.373 26.5042 70.112 25.1537 68.8929 23.144L61.2344 10.4263C61.2234 10.4156 61.2123 10.3944 61.1902 10.352C61.0683 10.1606 60.8465 10.0328 60.5916 10.0328C60.2037 10.0328 59.8934 10.3306 59.8934 10.7027V26.5148H33.7927C29.9247 26.5148 26.7881 23.5055 26.7881 19.7944V8.95883H29.437C30.9443 8.95883 32.23 8.04434 32.7287 6.75768L34.7791 1.49408L50.6722 1.49408V8.21448H34.4909C34.103 8.21448 33.7927 8.51222 33.7927 8.91629V11.4896H50.6722V16.5299H33.7927V19.1351C33.7927 19.5073 34.103 19.805 34.4909 19.805H52.8889V8.21448C52.8889 4.50337 56.0254 1.49408 59.8934 1.49408C62.4647 1.49408 64.7145 2.8339 65.9337 4.82238L73.7251 17.774C73.847 17.9123 74.0465 18.008 74.2571 18.008C74.645 18.008 74.9553 17.7102 74.9553 17.3381Z" fill="white"></path><path d="M7.00452 1.49384C3.13652 1.49384 0 4.50314 0 8.21424C0 10.9896 1.75113 13.3715 4.25591 14.3923L14.4302 18.5394C14.6519 18.6564 14.7959 18.8797 14.7959 19.1243C14.7959 19.4752 14.5078 19.7623 14.1531 19.7942H0V26.5146H17.8549V26.5039C21.5788 26.3551 24.5602 23.4096 24.5602 19.7942C24.5602 16.8593 22.5984 14.3711 19.872 13.4566L10.1854 9.51154C9.91938 9.41583 9.73096 9.17126 9.73096 8.88416C9.73096 8.53325 10.0191 8.24614 10.3738 8.21424H28.8826C30.3899 8.21424 31.6755 7.29976 32.1743 6.0131L33.8921 1.49384H7.00452Z" fill="white"></path><path fill-rule="evenodd" clip-rule="evenodd" d="M145.613 14L140.826 1.7457C140.571 1.09309 140.881 0.352413 141.518 0.0913663C142.156 -0.169681 142.879 0.14775 143.134 0.800368L148.105 13.5273L148.105 14.4727L143.134 27.1996C142.879 27.8522 142.156 28.1697 141.518 27.9086C140.881 27.6476 140.571 26.9069 140.826 26.2543L145.613 14Z" fill="#18B2FF"></path><g opacity="0.8"><path d="M161.673 10.4343C161.029 10.4343 160.464 10.3229 159.978 10.1001C159.493 9.87732 159.112 9.55963 158.836 9.14703C158.568 8.73444 158.43 8.24346 158.421 7.67408H159.828C159.836 8.13618 159.999 8.52814 160.317 8.84997C160.635 9.17179 161.083 9.3327 161.661 9.3327C162.172 9.3327 162.569 9.21305 162.854 8.97374C163.147 8.72619 163.293 8.41262 163.293 8.03303C163.293 7.72771 163.222 7.48016 163.08 7.29037C162.946 7.10057 162.758 6.94379 162.515 6.82001C162.28 6.69623 162.008 6.58483 161.699 6.48581C161.389 6.38679 161.062 6.27951 160.719 6.16399C160.041 5.94119 159.53 5.65237 159.187 5.29754C158.852 4.94271 158.685 4.47648 158.685 3.89885C158.676 3.41199 158.789 2.98702 159.024 2.62394C159.267 2.26086 159.602 1.9803 160.028 1.78225C160.464 1.57596 160.97 1.47281 161.548 1.47281C162.117 1.47281 162.615 1.57596 163.042 1.78225C163.477 1.98855 163.817 2.27736 164.059 2.6487C164.302 3.01178 164.428 3.43675 164.436 3.92361H163.03C163.03 3.70081 162.971 3.49039 162.854 3.29234C162.737 3.08605 162.565 2.91688 162.339 2.78485C162.113 2.65282 161.837 2.58681 161.51 2.58681C161.092 2.57856 160.744 2.68171 160.468 2.89625C160.2 3.1108 160.066 3.40787 160.066 3.78745C160.066 4.12578 160.167 4.38571 160.368 4.56725C160.568 4.7488 160.845 4.90145 161.196 5.02523C161.548 5.14076 161.95 5.27691 162.402 5.4337C162.837 5.57398 163.226 5.74314 163.57 5.94119C163.913 6.13923 164.185 6.39917 164.386 6.72099C164.595 7.04281 164.7 7.45128 164.7 7.94639C164.7 8.38374 164.587 8.7922 164.361 9.17179C164.135 9.54312 163.796 9.84844 163.344 10.0877C162.891 10.3188 162.335 10.4343 161.673 10.4343Z" fill="white"></path><path d="M171.467 10.4343C170.596 10.4343 169.834 10.2445 169.181 9.86494C168.528 9.48536 168.018 8.96137 167.649 8.29297C167.281 7.61631 167.097 6.83651 167.097 5.95357C167.097 5.07062 167.281 4.29494 167.649 3.62654C168.018 2.94989 168.528 2.42177 169.181 2.04219C169.834 1.6626 170.596 1.47281 171.467 1.47281C172.337 1.47281 173.099 1.6626 173.752 2.04219C174.405 2.42177 174.911 2.94989 175.271 3.62654C175.64 4.29494 175.824 5.07062 175.824 5.95357C175.824 6.83651 175.64 7.61631 175.271 8.29297C174.911 8.96137 174.405 9.48536 173.752 9.86494C173.099 10.2445 172.337 10.4343 171.467 10.4343ZM171.467 9.25843C172.069 9.25843 172.593 9.1264 173.036 8.86234C173.488 8.59829 173.84 8.2187 174.091 7.72359C174.342 7.22848 174.468 6.63847 174.468 5.95357C174.468 5.26866 174.342 4.67865 174.091 4.18354C173.84 3.68843 173.488 3.30885 173.036 3.04479C172.593 2.78073 172.069 2.6487 171.467 2.6487C170.864 2.6487 170.337 2.78073 169.884 3.04479C169.432 3.30885 169.081 3.68843 168.83 4.18354C168.587 4.67865 168.465 5.26866 168.465 5.95357C168.465 6.63847 168.587 7.22848 168.83 7.72359C169.081 8.2187 169.432 8.59829 169.884 8.86234C170.337 9.1264 170.864 9.25843 171.467 9.25843Z" fill="white"></path><path d="M178.563 10.2858V1.62134H184.075V2.68583H179.894V5.42132H183.359V6.47343H179.894V10.2858H178.563Z" fill="white"></path><path d="M188.696 10.2858V2.68583H186.096V1.62134H192.614V2.68583H190.027V10.2858H188.696Z" fill="white"></path><path d="M196.911 10.2982L194.537 1.62134H195.969L197.714 8.80046L199.723 1.62134H201.193L203.139 8.80046L204.884 1.62134H206.316L203.905 10.2858H202.348L200.427 3.49039L198.443 10.2858L196.911 10.2982Z" fill="white"></path><path d="M207.345 10.2858L210.585 1.62134H212.041L215.256 10.2858H213.849L213.096 8.16919H209.505L208.751 10.2858H207.345ZM209.881 7.12945H212.719L211.3 3.18094L209.881 7.12945Z" fill="white"></path><path d="M217.737 10.2858V1.62134H220.764C221.458 1.62134 222.028 1.73687 222.471 1.96792C222.923 2.19897 223.258 2.51254 223.476 2.90863C223.694 3.29647 223.802 3.72969 223.802 4.2083C223.802 4.74467 223.656 5.23153 223.363 5.66888C223.078 6.10622 222.63 6.4198 222.019 6.60959L223.89 10.2858H222.346L220.638 6.79526H219.068V10.2858H217.737ZM219.068 5.80503H220.688C221.291 5.80503 221.731 5.66062 222.007 5.37181C222.291 5.083 222.434 4.70754 222.434 4.24543C222.434 3.78333 222.296 3.41612 222.019 3.14381C221.743 2.86325 221.295 2.72296 220.676 2.72296H219.068V5.80503Z" fill="white"></path><path d="M226.633 10.2858V1.62134H232.221V2.68583H227.964V5.38419H231.844V6.42392H227.964V9.2213H232.221V10.2858H226.633Z" fill="white"></path><path d="M239.482 10.2858V1.62134H245.07V2.68583H240.813V5.38419H244.693V6.42392H240.813V9.2213H245.07V10.2858H239.482Z" fill="white"></path><path d="M247.911 10.2858V1.62134H249.242L253.65 8.14443V1.62134H254.981V10.2858H253.65L249.242 3.7627V10.2858H247.911Z" fill="white"></path><path d="M261.838 10.4343C261.009 10.4343 260.285 10.2487 259.666 9.87732C259.046 9.50599 258.565 8.98612 258.222 8.31772C257.879 7.64932 257.707 6.86952 257.707 5.97832C257.707 5.09537 257.883 4.31557 258.234 3.63892C258.586 2.96227 259.084 2.43415 259.729 2.05456C260.382 1.66673 261.152 1.47281 262.039 1.47281C263.044 1.47281 263.881 1.71211 264.551 2.19072C265.22 2.66933 265.656 3.32948 265.856 4.17117H264.35C264.216 3.70906 263.952 3.34598 263.559 3.08192C263.165 2.81786 262.659 2.68583 262.039 2.68583C261.118 2.68583 260.394 2.97877 259.867 3.56465C259.339 4.15054 259.076 4.95922 259.076 5.9907C259.076 7.02218 259.335 7.82674 259.854 8.40437C260.373 8.982 261.064 9.27081 261.926 9.27081C262.797 9.27081 263.45 9.02738 263.885 8.54052C264.329 8.05366 264.588 7.40589 264.664 6.59721H262.278V5.58223H266.007V10.2858H264.789L264.676 9.01088C264.383 9.46473 264.015 9.81543 263.571 10.063C263.127 10.3105 262.55 10.4343 261.838 10.4343Z" fill="white"></path><path d="M268.878 10.2858V1.62134H270.209V10.2858H268.878Z" fill="white"></path><path d="M273.249 10.2858V1.62134H274.58L278.987 8.14443V1.62134H280.318V10.2858H278.987L274.58 3.7627V10.2858H273.249Z" fill="white"></path><path d="M283.358 10.2858V1.62134H288.946V2.68583H284.689V5.38419H288.57V6.42392H284.689V9.2213H288.946V10.2858H283.358Z" fill="white"></path><path d="M291.788 10.2858V1.62134H297.376V2.68583H293.119V5.38419H296.999V6.42392H293.119V9.2213H297.376V10.2858H291.788Z" fill="white"></path><path d="M300.217 10.2858V1.62134H303.244C303.938 1.62134 304.508 1.73687 304.951 1.96792C305.403 2.19897 305.738 2.51254 305.956 2.90863C306.174 3.29647 306.282 3.72969 306.282 4.2083C306.282 4.74467 306.136 5.23153 305.843 5.66888C305.558 6.10622 305.11 6.4198 304.499 6.60959L306.37 10.2858H304.826L303.118 6.79526H301.548V10.2858H300.217ZM301.548 5.80503H303.168C303.771 5.80503 304.21 5.66062 304.487 5.37181C304.771 5.083 304.914 4.70754 304.914 4.24543C304.914 3.78333 304.776 3.41612 304.499 3.14381C304.223 2.86325 303.775 2.72296 303.156 2.72296H301.548V5.80503Z" fill="white"></path><path d="M309.113 10.2858V1.62134H310.444V10.2858H309.113Z" fill="white"></path><path d="M313.483 10.2858V1.62134H314.814L319.222 8.14443V1.62134H320.553V10.2858H319.222L314.814 3.7627V10.2858H313.483Z" fill="white"></path><path d="M327.41 10.4343C326.581 10.4343 325.857 10.2487 325.238 9.87732C324.618 9.50599 324.137 8.98612 323.794 8.31772C323.45 7.64932 323.279 6.86952 323.279 5.97832C323.279 5.09537 323.455 4.31557 323.806 3.63892C324.158 2.96227 324.656 2.43415 325.3 2.05456C325.953 1.66673 326.724 1.47281 327.611 1.47281C328.616 1.47281 329.453 1.71211 330.122 2.19072C330.792 2.66933 331.227 3.32948 331.428 4.17117H329.921C329.788 3.70906 329.524 3.34598 329.13 3.08192C328.737 2.81786 328.23 2.68583 327.611 2.68583C326.69 2.68583 325.966 2.97877 325.439 3.56465C324.911 4.15054 324.647 4.95922 324.647 5.9907C324.647 7.02218 324.907 7.82674 325.426 8.40437C325.945 8.982 326.636 9.27081 327.498 9.27081C328.369 9.27081 329.022 9.02738 329.457 8.54052C329.901 8.05366 330.16 7.40589 330.235 6.59721H327.85V5.58223H331.579V10.2858H330.361L330.248 9.01088C329.955 9.46473 329.587 9.81543 329.143 10.063C328.699 10.3105 328.122 10.4343 327.41 10.4343Z" fill="white"></path><path d="M158.773 26.3769V17.7125H160.104V25.3372H164.097V26.3769H158.773Z" fill="white"></path><path d="M166.22 26.3769L169.46 17.7125H170.917L174.131 26.3769H172.725L171.971 24.2603H168.38L167.627 26.3769H166.22ZM168.757 23.2206H171.595L170.176 19.2721L168.757 23.2206Z" fill="white"></path><path d="M176.613 26.3769V17.7125H179.928C180.84 17.7125 181.531 17.9229 182 18.3437C182.469 18.7646 182.703 19.2927 182.703 19.9281C182.703 20.481 182.552 20.9224 182.251 21.2525C181.95 21.5743 181.585 21.793 181.158 21.9085C181.493 21.9745 181.79 22.1066 182.05 22.3046C182.318 22.5027 182.527 22.7502 182.678 23.0473C182.829 23.3443 182.904 23.6662 182.904 24.0127C182.904 24.4583 182.791 24.8627 182.565 25.2258C182.347 25.5806 182.025 25.8612 181.598 26.0675C181.171 26.2738 180.648 26.3769 180.028 26.3769H176.613ZM177.944 21.4258H179.765C180.275 21.4258 180.664 21.3103 180.932 21.0792C181.2 20.8399 181.334 20.514 181.334 20.1014C181.334 19.697 181.2 19.3752 180.932 19.1359C180.673 18.8966 180.275 18.7769 179.739 18.7769H177.944V21.4258ZM177.944 25.3H179.852C180.388 25.3 180.803 25.1763 181.096 24.9287C181.397 24.6812 181.548 24.3346 181.548 23.889C181.548 23.4434 181.393 23.0927 181.083 22.8369C180.773 22.5728 180.355 22.4408 179.827 22.4408H177.944V25.3Z" fill="white"></path><path d="M189.675 26.5254C188.804 26.5254 188.042 26.3356 187.389 25.9561C186.736 25.5765 186.225 25.0525 185.857 24.3841C185.489 23.7074 185.305 22.9276 185.305 22.0447C185.305 21.1617 185.489 20.3861 185.857 19.7177C186.225 19.041 186.736 18.5129 187.389 18.1333C188.042 17.7537 188.804 17.5639 189.675 17.5639C190.545 17.5639 191.307 17.7537 191.96 18.1333C192.613 18.5129 193.119 19.041 193.479 19.7177C193.848 20.3861 194.032 21.1617 194.032 22.0447C194.032 22.9276 193.848 23.7074 193.479 24.3841C193.119 25.0525 192.613 25.5765 191.96 25.9561C191.307 26.3356 190.545 26.5254 189.675 26.5254ZM189.675 25.3496C190.277 25.3496 190.8 25.2175 191.244 24.9535C191.696 24.6894 192.048 24.3098 192.299 23.8147C192.55 23.3196 192.676 22.7296 192.676 22.0447C192.676 21.3598 192.55 20.7698 192.299 20.2747C192.048 19.7795 191.696 19.4 191.244 19.1359C190.8 18.8718 190.277 18.7398 189.675 18.7398C189.072 18.7398 188.544 18.8718 188.092 19.1359C187.64 19.4 187.289 19.7795 187.038 20.2747C186.795 20.7698 186.673 21.3598 186.673 22.0447C186.673 22.7296 186.795 23.3196 187.038 23.8147C187.289 24.3098 187.64 24.6894 188.092 24.9535C188.544 25.2175 189.072 25.3496 189.675 25.3496Z" fill="white"></path><path d="M196.77 26.3769V17.7125H199.797C200.491 17.7125 201.061 17.828 201.504 18.059C201.956 18.2901 202.291 18.6037 202.509 18.9997C202.727 19.3876 202.835 19.8208 202.835 20.2994C202.835 20.8358 202.689 21.3226 202.396 21.76C202.111 22.1973 201.663 22.5109 201.052 22.7007L202.923 26.3769H201.379L199.671 22.8864H198.101V26.3769H196.77ZM198.101 21.8961H199.721C200.324 21.8961 200.764 21.7517 201.04 21.4629C201.324 21.1741 201.467 20.7987 201.467 20.3365C201.467 19.8744 201.329 19.5072 201.052 19.2349C200.776 18.9544 200.328 18.8141 199.709 18.8141H198.101V21.8961Z" fill="white"></path><path d="M205.101 26.3769L208.341 17.7125H209.797L213.012 26.3769H211.605L210.852 24.2603H207.261L206.507 26.3769H205.101ZM207.637 23.2206H210.475L209.056 19.2721L207.637 23.2206Z" fill="white"></path><path d="M216.596 26.3769V18.7769H213.997V17.7125H220.514V18.7769H217.927V26.3769H216.596Z" fill="white"></path><path d="M226.679 26.5254C225.808 26.5254 225.046 26.3356 224.393 25.9561C223.74 25.5765 223.23 25.0525 222.861 24.3841C222.493 23.7074 222.309 22.9276 222.309 22.0447C222.309 21.1617 222.493 20.3861 222.861 19.7177C223.23 19.041 223.74 18.5129 224.393 18.1333C225.046 17.7537 225.808 17.5639 226.679 17.5639C227.549 17.5639 228.311 17.7537 228.964 18.1333C229.617 18.5129 230.124 19.041 230.484 19.7177C230.852 20.3861 231.036 21.1617 231.036 22.0447C231.036 22.9276 230.852 23.7074 230.484 24.3841C230.124 25.0525 229.617 25.5765 228.964 25.9561C228.311 26.3356 227.549 26.5254 226.679 26.5254ZM226.679 25.3496C227.282 25.3496 227.805 25.2175 228.249 24.9535C228.701 24.6894 229.052 24.3098 229.303 23.8147C229.554 23.3196 229.68 22.7296 229.68 22.0447C229.68 21.3598 229.554 20.7698 229.303 20.2747C229.052 19.7795 228.701 19.4 228.249 19.1359C227.805 18.8718 227.282 18.7398 226.679 18.7398C226.076 18.7398 225.549 18.8718 225.097 19.1359C224.645 19.4 224.293 19.7795 224.042 20.2747C223.799 20.7698 223.678 21.3598 223.678 22.0447C223.678 22.7296 223.799 23.3196 224.042 23.8147C224.293 24.3098 224.645 24.6894 225.097 24.9535C225.549 25.2175 226.076 25.3496 226.679 25.3496Z" fill="white"></path><path d="M233.775 26.3769V17.7125H236.801C237.496 17.7125 238.065 17.828 238.509 18.059C238.961 18.2901 239.296 18.6037 239.513 18.9997C239.731 19.3876 239.84 19.8208 239.84 20.2994C239.84 20.8358 239.693 21.3226 239.4 21.76C239.116 22.1973 238.668 22.5109 238.057 22.7007L239.928 26.3769H238.383L236.675 22.8864H235.106V26.3769H233.775ZM235.106 21.8961H236.726C237.328 21.8961 237.768 21.7517 238.044 21.4629C238.329 21.1741 238.471 20.7987 238.471 20.3365C238.471 19.8744 238.333 19.5072 238.057 19.2349C237.78 18.9544 237.333 18.8141 236.713 18.8141H235.106V21.8961Z" fill="white"></path><path d="M244.574 26.3769V23.1834L241.661 17.7125H243.168L245.24 21.8961L247.299 17.7125H248.793L245.905 23.1834V26.3769H244.574Z" fill="white"></path></g></svg>